<svg width="1136" height="74" viewBox="0 0 1136 74" fill="none" xmlns="http://www.w3.org/2000/svg">
<path d="M96.1532 52.9007L95.7571 51.9826L96.1532 52.9007ZM229.607 12.0221L229.644 11.0228L229.607 12.0221ZM351.076 60.8767L350.114 60.6053L351.076 60.8767ZM659.381 72.343L659.308 73.3403L659.381 72.343ZM1.56978 35.6782C10.3902 41.7937 28.4103 48.2809 47.0994 52.0239C56.4241 53.8913 65.8687 55.0659 74.3601 55.175C82.8709 55.2844 90.3358 54.3216 95.7571 51.9826L96.5494 53.8189C90.7515 56.3204 82.9597 57.2857 74.3344 57.1748C65.6896 57.0638 56.1186 55.8699 46.7067 53.9849C27.9226 50.223 9.58519 43.6693 0.430218 37.3218L1.56978 35.6782ZM95.7571 51.9826C133.542 35.6799 155.153 24.9792 173.168 18.6091C191.283 12.204 205.846 10.1399 229.644 11.0228L229.57 13.0214C205.978 12.1461 191.672 14.1878 173.835 20.4947C155.9 26.8366 134.478 37.4543 96.5494 53.8189L95.7571 51.9826ZM229.644 11.0228C270.063 12.5224 301.658 20.8964 322.636 30.8729C333.119 35.8581 340.995 41.2642 345.992 46.4505C350.94 51.5859 353.28 56.7474 352.039 61.1481L350.114 60.6053C351.052 57.2793 349.375 52.8445 344.552 47.8381C339.778 42.8828 332.129 37.6019 321.777 32.679C301.086 22.8393 269.767 14.5128 229.57 13.0214L229.644 11.0228ZM352.039 61.1481C351.075 64.5675 349.464 66.8557 347.381 68.0407C345.284 69.2331 342.896 69.2034 340.613 68.3658C336.103 66.7107 331.729 61.8313 329.667 55.85C327.587 49.8148 327.804 42.5072 332.695 35.977C337.565 29.475 346.952 23.8991 362.881 21.0084L363.238 22.9763C347.575 25.8187 338.747 31.2331 334.296 37.1759C329.866 43.0905 329.657 49.6823 331.558 55.1982C333.478 60.768 337.496 65.0915 341.302 66.4882C343.178 67.1765 344.928 67.1349 346.392 66.3023C347.868 65.4623 349.238 63.7125 350.114 60.6053L352.039 61.1481ZM362.881 21.0084C378.847 18.1113 398.59 19.3482 420.855 22.9134C443.132 26.4806 468.022 32.3947 494.303 38.9062C546.902 51.9389 605.088 67.3652 659.454 71.3456L659.308 73.3403C604.732 69.3445 546.35 53.8626 493.822 40.8475C467.538 34.3351 442.723 28.4405 420.539 24.8882C398.342 21.3339 378.866 20.1404 363.238 22.9763L362.881 21.0084ZM659.454 71.3456C700.038 74.3171 745.855 66.8337 792.875 55.6994C839.94 44.5544 887.961 29.8196 933.226 18.2693C978.402 6.74173 1020.72 -1.58004 1056 0.253799C1091.33 2.08987 1119.75 14.1217 1136.86 43.4229L1135.14 44.4315C1118.48 15.9044 1090.81 4.06557 1055.9 2.25111C1020.95 0.434402 978.886 8.68228 933.721 20.2072C888.644 31.7093 840.361 46.5098 793.336 57.6455C746.265 68.7919 700.206 76.3347 659.308 73.3403L659.454 71.3456Z" fill="url(#paint0_linear_550_2637)"/>
<defs>
<linearGradient id="paint0_linear_550_2637" x1="18.26" y1="8.03376" x2="1095.14" y2="3.27242" gradientUnits="userSpaceOnUse">
<stop stop-color="#DF3B8E"/>
<stop offset="1" stop-color="#509FDE"/>
</linearGradient>
</defs>
</svg>
