<svg xmlns="http://www.w3.org/2000/svg" width="997" height="75" viewBox="0 0 997 75" fill="none">
<path d="M81.5 21.1589L81.0736 22.0635L81.5 21.1589ZM204 62.1589L203.96 61.1598L204 62.1589ZM315.5 13.1593L314.532 13.4092L315.5 13.1593ZM598.5 1.65897L598.42 0.662155L598.5 1.65897ZM2.10386 30.4564C10.1435 24.3658 24.7836 19.8423 40.0787 18.0738C55.3723 16.3055 71.0251 17.3263 81.0736 22.0635L81.9264 20.2544C71.3784 15.2818 55.2812 14.3027 39.8489 16.0871C24.4181 17.8712 9.35651 22.4528 0.896142 28.8622L2.10386 30.4564ZM81.0736 22.0635C115.748 38.4102 135.597 49.1484 152.14 55.5396C168.788 61.9717 182.177 64.0444 204.04 63.1581L203.96 61.1598C182.323 62.0369 169.212 59.9917 152.86 53.674C136.403 47.3154 116.752 36.672 81.9264 20.2544L81.0736 22.0635ZM204.04 63.1581C241.163 61.6533 270.186 53.2494 289.461 43.2338C299.093 38.2288 306.331 32.8006 310.922 27.5938C315.476 22.4284 317.595 17.2751 316.468 12.9094L314.532 13.4092C315.405 16.7932 313.836 21.2646 309.422 26.2711C305.044 31.236 298.032 36.5266 288.539 41.4591C269.564 51.3185 240.837 59.6648 203.96 61.1598L204.04 63.1581ZM316.468 12.9094C315.589 9.50108 314.116 7.1991 312.182 5.99649C310.215 4.77426 307.968 4.80791 305.84 5.6614C301.657 7.33836 297.647 12.2526 295.762 18.2269C293.86 24.256 294.055 31.5572 298.537 38.0971C303.013 44.6263 311.651 50.2344 326.306 53.14L326.694 51.1782C312.349 48.3338 304.267 42.9189 300.187 36.9663C296.114 31.0244 295.917 24.385 297.67 18.8287C299.44 13.2176 303.133 8.90162 306.584 7.51773C308.272 6.84079 309.825 6.88634 311.126 7.69511C312.458 8.52349 313.722 10.2716 314.532 13.4092L316.468 12.9094ZM326.306 53.14C340.989 56.0514 359.136 54.8067 379.579 51.23C400.035 47.6509 422.888 41.7175 447.011 35.1867C495.3 22.1137 548.694 6.64659 598.58 2.65579L598.42 0.662155C548.306 4.67127 494.7 20.2042 446.489 33.2562C422.362 39.788 399.59 45.6984 379.234 49.2599C358.864 52.8239 341.011 54.0167 326.694 51.1782L326.306 53.14ZM598.58 2.65579C635.806 -0.32226 677.841 7.17763 720.998 18.3441C764.203 29.523 808.263 44.296 849.828 55.8846C891.295 67.4464 930.162 75.7999 962.577 73.959C995.057 72.1143 1021.17 60.0193 1036.88 30.6305L1035.12 29.6877C1019.83 58.2989 994.454 70.1454 962.464 71.9622C930.409 73.7826 891.823 65.5173 850.365 53.9581C809.003 42.4259 764.662 27.5759 721.499 16.4079C678.289 5.22755 635.989 -2.34332 598.42 0.662155L598.58 2.65579Z" fill="url(#paint0_linear_533_2457)"/>
<defs>
<linearGradient id="paint0_linear_533_2457" x1="17.2317" y1="66.1591" x2="998.765" y2="70.1029" gradientUnits="userSpaceOnUse">
<stop stop-color="#DF3B8E"/>
<stop offset="1" stop-color="#509FDE"/>
</linearGradient>
</defs>
</svg>