<svg width="1086" height="71" viewBox="0 0 1086 71" fill="none" xmlns="http://www.w3.org/2000/svg">
<path d="M9.00001 67.6497L9.26964 68.6127L9.00001 67.6497ZM72.5 42.6504L73.0115 41.7911L72.5 42.6504ZM200.5 56.6496L200.07 55.7469L200.025 55.7683L199.982 55.7941L200.5 56.6496ZM271 9.00024L271.503 9.86449L271 9.00024ZM415 48.6496L414.626 49.577L415 48.6496ZM607.5 48.6496L607.015 47.775L607.5 48.6496ZM736.5 34.6504L736.963 33.7642L736.5 34.6504ZM902.5 27.1497L902.977 28.0285L902.5 27.1497ZM951 66.1496L951.079 67.1465L951 66.1496ZM1.61342 59.1872C1.0835 60.2028 0.580078 61.437 0.291352 62.6853C0.00695765 63.9149 -0.0947678 65.2678 0.301535 66.4541C0.722711 67.7148 1.6757 68.6851 3.23397 69.0882C4.71711 69.4718 6.69927 69.3324 9.26964 68.6127L8.73038 66.6867C6.30075 67.367 4.72041 67.4068 3.73479 67.1519C2.82432 66.9164 2.4023 66.4305 2.19848 65.8204C1.96978 65.1358 1.99306 64.2033 2.23991 63.136C2.48244 62.0874 2.91651 61.0133 3.38659 60.1123L1.61342 59.1872ZM9.26964 68.6127C10.9681 68.1371 12.8842 67.1558 14.9427 65.8863C17.0118 64.6103 19.2845 63.0051 21.7011 61.2384C26.5551 57.6899 32.0015 53.4835 37.7536 49.7829C43.5044 46.0831 49.4744 42.9479 55.3189 41.5285C61.1399 40.1148 66.7856 40.4128 71.9885 43.5097L73.0115 41.7911C67.2478 38.3604 61.0353 38.0821 54.8469 39.585C48.6821 41.0822 42.4916 44.3565 36.6715 48.1009C30.8527 51.8445 25.3179 56.117 20.5208 59.6238C18.1119 61.3849 15.8916 62.9514 13.8929 64.184C11.8836 65.4232 10.1569 66.2873 8.73038 66.6867L9.26964 68.6127ZM71.9885 43.5097C93.1716 56.1184 120.943 62.3045 145.581 64.0171C157.909 64.874 169.485 64.6132 179.1 63.4648C188.678 62.3207 196.429 60.2826 201.018 57.5051L199.982 55.7941C195.771 58.343 188.372 60.343 178.862 61.4789C169.39 62.6104 157.941 62.8714 145.719 62.0219C121.257 60.3215 93.8284 54.1818 73.0115 41.7911L71.9885 43.5097ZM271.503 9.86449C287.819 0.367137 307.918 3.85199 331.964 13.0683C343.958 17.6654 356.848 23.6524 370.644 30.0688C384.428 36.48 399.104 43.3138 414.626 49.577L415.374 47.7223C399.908 41.4816 385.278 34.6697 371.487 28.2553C357.707 21.8461 344.751 15.8275 332.68 11.2008C308.594 1.96933 287.681 -1.86658 270.497 8.136L271.503 9.86449ZM414.626 49.577C500.389 84.184 568.776 71.2594 607.985 49.5242L607.015 47.775C568.364 69.2011 500.611 82.1168 415.374 47.7223L414.626 49.577ZM607.985 49.5242C653.856 24.0958 699.216 16.2842 736.037 35.5366L736.963 33.7642C699.277 14.0587 653.144 22.2034 607.015 47.775L607.985 49.5242ZM736.037 35.5366C813.032 75.7955 885.464 37.5362 902.977 28.0285L902.023 26.2708C884.536 35.7646 812.968 73.5053 736.963 33.7642L736.037 35.5366ZM902.977 28.0285C907.229 25.7202 909.753 23.1755 910.703 20.4589C911.673 17.6849 910.923 14.9758 909.184 12.5751C907.46 10.1944 904.719 8.0381 901.487 6.21912C898.244 4.39351 894.447 2.87349 890.544 1.79374C886.641 0.714114 882.606 0.0672234 878.884 0.00495267C875.174 -0.0571002 871.704 0.460201 868.982 1.7739C866.226 3.10413 864.218 5.268 863.596 8.4148C862.985 11.5045 863.745 15.3752 866.106 20.0969L867.894 19.2024C865.63 14.6741 865.069 11.2778 865.558 8.80265C866.036 6.38463 867.55 4.68592 869.851 3.57509C872.187 2.44772 875.311 1.94547 878.85 2.00467C882.376 2.06366 886.242 2.67883 890.011 3.72134C893.779 4.76374 897.422 6.22596 900.506 7.96195C903.602 9.70458 906.073 11.6892 907.565 13.7482C909.041 15.7872 909.509 17.8163 908.815 19.7986C908.102 21.8382 906.081 24.0677 902.023 26.2708L902.977 28.0285ZM866.106 20.0969C875.482 38.8504 891.175 51.0529 907.263 58.3412C923.336 65.6233 939.88 68.0352 951.079 67.1465L950.921 65.1528C940.087 66.0124 923.881 63.6743 908.088 56.5194C892.308 49.3706 877.018 37.4489 867.894 19.2024L866.106 20.0969ZM951.079 67.1465C967.033 65.8805 981.649 59.8062 995.133 52.0238C1008.6 44.25 1021.03 34.7178 1032.52 26.5267C1044.06 18.297 1054.63 11.4538 1064.53 8.8272C1069.46 7.52032 1074.18 7.2687 1078.76 8.39325C1083.34 9.51716 1087.85 12.0325 1092.3 16.3664L1093.7 14.9327C1089.03 10.3916 1084.22 7.67267 1079.24 6.45091C1074.27 5.22979 1069.19 5.5212 1064.02 6.89407C1053.71 9.627 1042.87 16.6902 1031.36 24.8981C1019.79 33.1446 1007.49 42.5812 994.133 50.2917C980.789 57.9936 966.467 63.9191 950.921 65.1528L951.079 67.1465ZM200.93 57.5524C213.785 51.4278 223.906 43.8668 234.558 35.6767C245.216 27.4811 256.415 18.6469 271.503 9.86449L270.497 8.136C255.279 16.994 243.979 25.9096 233.338 34.0912C222.691 42.2783 212.715 49.7217 200.07 55.7469L200.93 57.5524Z" fill="url(#paint0_linear_533_2459)"/>
<defs>
<linearGradient id="paint0_linear_533_2459" x1="17.6456" y1="63.2162" x2="1053.69" y2="67.8181" gradientUnits="userSpaceOnUse">
<stop stop-color="#DF3B8E"/>
<stop offset="1" stop-color="#509FDE"/>
</linearGradient>
</defs>
</svg>
