<svg width="46" height="46" viewBox="0 0 46 46" fill="none" xmlns="http://www.w3.org/2000/svg">
<path d="M43.1726 1.18124C41.5964 0.909742 40.0003 0.769991 38.4008 0.763437C32.9438 0.758964 27.6006 2.32377 23.0081 5.27132C18.4037 2.36247 13.0614 0.836071 7.61529 0.873386C6.01586 0.879939 4.41976 1.01969 2.84353 1.29119C2.32723 1.3802 1.85967 1.65063 1.52506 2.05378C1.19045 2.45692 1.01077 2.96629 1.01839 3.49016V29.8778C1.01368 30.2009 1.08024 30.521 1.21333 30.8155C1.34642 31.11 1.54277 31.3715 1.78841 31.5814C2.03405 31.7914 2.32294 31.9446 2.63453 32.0302C2.94612 32.1158 3.27275 32.1317 3.59118 32.0767C6.74234 31.5311 9.97083 31.6217 13.0865 32.343C16.2021 33.0643 19.1419 34.4018 21.7327 36.2768L21.9965 36.4307H22.2384C22.4823 36.5323 22.7439 36.5846 23.0081 36.5846C23.2723 36.5846 23.5338 36.5323 23.7777 36.4307H24.0196L24.2835 36.2768C26.8562 34.3599 29.7875 32.979 32.9037 32.216C36.02 31.453 39.2577 31.3234 42.4249 31.8348C42.7434 31.8898 43.07 31.8739 43.3816 31.7883C43.6932 31.7027 43.9821 31.5495 44.2277 31.3395C44.4734 31.1296 44.6697 30.8681 44.8028 30.5736C44.9359 30.2792 45.0024 29.959 44.9977 29.6359V3.24827C44.9748 2.74724 44.7814 2.26909 44.4494 1.89313C44.1174 1.51717 43.6669 1.26598 43.1726 1.18124ZM20.8091 30.4055C16.7407 28.2652 12.2123 27.1482 7.61529 27.151C6.88963 27.151 6.16397 27.151 5.41632 27.151V5.16137C6.1487 5.11916 6.88291 5.11916 7.61529 5.16137C12.3065 5.15619 16.8954 6.53285 20.8091 9.11951V30.4055ZM40.5998 27.239C39.8521 27.239 39.1265 27.239 38.4008 27.239C33.8038 27.2362 29.2754 28.3532 25.207 30.4935V9.11951C29.1207 6.53285 33.7096 5.15619 38.4008 5.16137C39.1332 5.11916 39.8674 5.11916 40.5998 5.16137V27.239ZM43.1726 36.3647C41.5964 36.0932 40.0003 35.9535 38.4008 35.9469C32.9438 35.9424 27.6006 37.5072 23.0081 40.4548C18.4156 37.5072 13.0723 35.9424 7.61529 35.9469C6.01586 35.9535 4.41976 36.0932 2.84353 36.3647C2.55729 36.4101 2.28284 36.5117 2.03599 36.6636C1.78913 36.8154 1.57473 37.0146 1.40511 37.2496C1.2355 37.4846 1.11401 37.7508 1.04764 38.033C0.981274 38.3151 0.971332 38.6076 1.01839 38.8935C1.13014 39.4646 1.46366 39.968 1.94589 40.2937C2.42813 40.6193 3.01976 40.7405 3.59118 40.6307C6.74234 40.0851 9.97083 40.1756 13.0865 40.897C16.2021 41.6183 19.1419 42.9558 21.7327 44.8307C22.1051 45.0959 22.5509 45.2384 23.0081 45.2384C23.4652 45.2384 23.911 45.0959 24.2835 44.8307C26.8742 42.9558 29.814 41.6183 32.9297 40.897C36.0453 40.1756 39.2738 40.0851 42.4249 40.6307C42.9964 40.7405 43.588 40.6193 44.0702 40.2937C44.5525 39.968 44.886 39.4646 44.9977 38.8935C45.0448 38.6076 45.0348 38.3151 44.9685 38.033C44.9021 37.7508 44.7806 37.4846 44.611 37.2496C44.4414 37.0146 44.227 36.8154 43.9801 36.6636C43.7333 36.5117 43.4588 36.4101 43.1726 36.3647Z" fill="white"/>
</svg>
