<svg width="68" height="68" viewBox="0 0 68 68" fill="none" xmlns="http://www.w3.org/2000/svg">
<path d="M34.2645 53.6279C34.8157 53.6279 35.3546 53.4623 35.813 53.1522C36.2713 52.8421 36.6286 52.4012 36.8395 51.8855C37.0505 51.3697 37.1057 50.8022 36.9982 50.2547C36.8906 49.7072 36.6251 49.2043 36.2353 48.8095C35.8455 48.4148 35.3489 48.146 34.8082 48.0371C34.2676 47.9282 33.7071 47.9841 33.1978 48.1977C32.6885 48.4113 32.2532 48.7731 31.947 49.2373C31.6407 49.7014 31.4772 50.2471 31.4772 50.8054C31.4772 51.5539 31.7709 52.2719 32.2936 52.8012C32.8163 53.3305 33.5252 53.6279 34.2645 53.6279ZM48.2007 53.6279C48.7519 53.6279 49.2908 53.4623 49.7492 53.1522C50.2075 52.8421 50.5648 52.4012 50.7757 51.8855C50.9867 51.3697 51.0419 50.8022 50.9344 50.2547C50.8268 49.7072 50.5613 49.2043 50.1715 48.8095C49.7817 48.4148 49.2851 48.146 48.7444 48.0371C48.2038 47.9282 47.6433 47.9841 47.134 48.1977C46.6247 48.4113 46.1894 48.7731 45.8832 49.2373C45.5769 49.7014 45.4134 50.2471 45.4134 50.8054C45.4134 51.5539 45.7071 52.2719 46.2298 52.8012C46.7525 53.3305 47.4614 53.6279 48.2007 53.6279ZM48.2007 42.3378C48.7519 42.3378 49.2908 42.1723 49.7492 41.8621C50.2075 41.552 50.5648 41.1112 50.7757 40.5954C50.9867 40.0797 51.0419 39.5121 50.9344 38.9646C50.8268 38.4171 50.5613 37.9142 50.1715 37.5195C49.7817 37.1247 49.2851 36.8559 48.7444 36.747C48.2038 36.6381 47.6433 36.694 47.134 36.9076C46.6247 37.1212 46.1894 37.483 45.8832 37.9472C45.5769 38.4113 45.4134 38.957 45.4134 39.5153C45.4134 40.2639 45.7071 40.9818 46.2298 41.5111C46.7525 42.0404 47.4614 42.3378 48.2007 42.3378ZM34.2645 42.3378C34.8157 42.3378 35.3546 42.1723 35.813 41.8621C36.2713 41.552 36.6286 41.1112 36.8395 40.5954C37.0505 40.0797 37.1057 39.5121 36.9982 38.9646C36.8906 38.4171 36.6251 37.9142 36.2353 37.5195C35.8455 37.1247 35.3489 36.8559 34.8082 36.747C34.2676 36.6381 33.7071 36.694 33.1978 36.9076C32.6885 37.1212 32.2532 37.483 31.947 37.9472C31.6407 38.4113 31.4772 38.957 31.4772 39.5153C31.4772 40.2639 31.7709 40.9818 32.2936 41.5111C32.8163 42.0404 33.5252 42.3378 34.2645 42.3378ZM53.7751 8.46755H50.9879V5.64503C50.9879 4.89645 50.6943 4.17853 50.1715 3.64921C49.6488 3.11988 48.9399 2.82251 48.2007 2.82251C47.4614 2.82251 46.7525 3.11988 46.2298 3.64921C45.7071 4.17853 45.4134 4.89645 45.4134 5.64503V8.46755H23.1155V5.64503C23.1155 4.89645 22.8219 4.17853 22.2991 3.64921C21.7764 3.11988 21.0675 2.82251 20.3283 2.82251C19.5891 2.82251 18.8801 3.11988 18.3574 3.64921C17.8347 4.17853 17.541 4.89645 17.541 5.64503V8.46755H14.7538C12.5361 8.46755 10.4093 9.35967 8.84117 10.9476C7.27304 12.5356 6.39207 14.6894 6.39207 16.9351V56.4504C6.39207 58.6961 7.27304 60.8499 8.84117 62.4379C10.4093 64.0259 12.5361 64.918 14.7538 64.918H53.7751C55.9928 64.918 58.1196 64.0259 59.6878 62.4379C61.2559 60.8499 62.1369 58.6961 62.1369 56.4504V16.9351C62.1369 14.6894 61.2559 12.5356 59.6878 10.9476C58.1196 9.35967 55.9928 8.46755 53.7751 8.46755ZM56.5624 56.4504C56.5624 57.199 56.2687 57.9169 55.746 58.4462C55.2233 58.9756 54.5144 59.2729 53.7751 59.2729H14.7538C14.0146 59.2729 13.3056 58.9756 12.7829 58.4462C12.2602 57.9169 11.9666 57.199 11.9666 56.4504V31.0477H56.5624V56.4504ZM56.5624 25.4027H11.9666V16.9351C11.9666 16.1865 12.2602 15.4686 12.7829 14.9393C13.3056 14.41 14.0146 14.1126 14.7538 14.1126H17.541V16.9351C17.541 17.6837 17.8347 18.4016 18.3574 18.9309C18.8801 19.4603 19.5891 19.7576 20.3283 19.7576C21.0675 19.7576 21.7764 19.4603 22.2991 18.9309C22.8219 18.4016 23.1155 17.6837 23.1155 16.9351V14.1126H45.4134V16.9351C45.4134 17.6837 45.7071 18.4016 46.2298 18.9309C46.7525 19.4603 47.4614 19.7576 48.2007 19.7576C48.9399 19.7576 49.6488 19.4603 50.1715 18.9309C50.6943 18.4016 50.9879 17.6837 50.9879 16.9351V14.1126H53.7751C54.5144 14.1126 55.2233 14.41 55.746 14.9393C56.2687 15.4686 56.5624 16.1865 56.5624 16.9351V25.4027ZM20.3283 42.3378C20.8795 42.3378 21.4184 42.1723 21.8768 41.8621C22.3351 41.552 22.6924 41.1112 22.9033 40.5954C23.1143 40.0797 23.1695 39.5121 23.062 38.9646C22.9544 38.4171 22.6889 37.9142 22.2991 37.5195C21.9093 37.1247 21.4127 36.8559 20.872 36.747C20.3314 36.6381 19.7709 36.694 19.2616 36.9076C18.7523 37.1212 18.317 37.483 18.0108 37.9472C17.7045 38.4113 17.541 38.957 17.541 39.5153C17.541 40.2639 17.8347 40.9818 18.3574 41.5111C18.8801 42.0404 19.5891 42.3378 20.3283 42.3378ZM20.3283 53.6279C20.8795 53.6279 21.4184 53.4623 21.8768 53.1522C22.3351 52.8421 22.6924 52.4012 22.9033 51.8855C23.1143 51.3697 23.1695 50.8022 23.062 50.2547C22.9544 49.7072 22.6889 49.2043 22.2991 48.8095C21.9093 48.4148 21.4127 48.146 20.872 48.0371C20.3314 47.9282 19.7709 47.9841 19.2616 48.1977C18.7523 48.4113 18.317 48.7731 18.0108 49.2373C17.7045 49.7014 17.541 50.2471 17.541 50.8054C17.541 51.5539 17.8347 52.2719 18.3574 52.8012C18.8801 53.3305 19.5891 53.6279 20.3283 53.6279Z" fill="black"/>
</svg>
