<svg width="46" height="47" viewBox="0 0 46 47" fill="none" xmlns="http://www.w3.org/2000/svg">
<path d="M25.4837 33.0104H11.9074C11.3073 33.0104 10.7318 33.2521 10.3075 33.6824C9.88314 34.1127 9.64474 34.6964 9.64474 35.3049C9.64474 35.9135 9.88314 36.4971 10.3075 36.9275C10.7318 37.3578 11.3073 37.5995 11.9074 37.5995H25.4837C26.0838 37.5995 26.6593 37.3578 27.0837 36.9275C27.508 36.4971 27.7464 35.9135 27.7464 35.3049C27.7464 34.6964 27.508 34.1127 27.0837 33.6824C26.6593 33.2521 26.0838 33.0104 25.4837 33.0104ZM16.4329 19.2429H20.9583C21.5584 19.2429 22.1339 19.0012 22.5582 18.5709C22.9826 18.1405 23.221 17.5569 23.221 16.9483C23.221 16.3398 22.9826 15.7561 22.5582 15.3258C22.1339 14.8955 21.5584 14.6538 20.9583 14.6538H16.4329C15.8328 14.6538 15.2572 14.8955 14.8329 15.3258C14.4085 15.7561 14.1702 16.3398 14.1702 16.9483C14.1702 17.5569 14.4085 18.1405 14.8329 18.5709C15.2572 19.0012 15.8328 19.2429 16.4329 19.2429ZM43.5853 23.8321H36.7972V3.18089C36.7988 2.77657 36.695 2.37899 36.4963 2.02843C36.2976 1.67787 36.0112 1.38677 35.6659 1.18461C35.3219 0.983221 34.9317 0.877197 34.5345 0.877197C34.1373 0.877197 33.7471 0.983221 33.4032 1.18461L26.615 5.13128L19.8269 1.18461C19.4829 0.983221 19.0928 0.877197 18.6956 0.877197C18.2984 0.877197 17.9082 0.983221 17.5642 1.18461L10.7761 5.13128L3.98798 1.18461C3.644 0.983221 3.25381 0.877197 2.85663 0.877197C2.45944 0.877197 2.06925 0.983221 1.72527 1.18461C1.37997 1.38677 1.09348 1.67787 0.894811 2.02843C0.696138 2.37899 0.592338 2.77657 0.59392 3.18089V39.8941C0.59392 41.7198 1.3091 43.4707 2.58211 44.7616C3.85513 46.0526 5.58172 46.7778 7.38204 46.7778H39.0599C40.8602 46.7778 42.5868 46.0526 43.8598 44.7616C45.1329 43.4707 45.848 41.7198 45.848 39.8941V26.1266C45.848 25.5181 45.6096 24.9345 45.1853 24.5041C44.761 24.0738 44.1854 23.8321 43.5853 23.8321ZM7.38204 42.1887C6.78193 42.1887 6.2064 41.9469 5.78206 41.5166C5.35772 41.0863 5.11933 40.5027 5.11933 39.8941V7.15051L9.64474 9.76632C9.99397 9.95129 10.3821 10.0479 10.7761 10.0479C11.1701 10.0479 11.5582 9.95129 11.9074 9.76632L18.6956 5.81965L25.4837 9.76632C25.8329 9.95129 26.2211 10.0479 26.615 10.0479C27.009 10.0479 27.3972 9.95129 27.7464 9.76632L32.2718 7.15051V39.8941C32.2779 40.6769 32.4157 41.4529 32.6791 42.1887H7.38204ZM41.3226 39.8941C41.3226 40.5027 41.0842 41.0863 40.6599 41.5166C40.2356 41.9469 39.66 42.1887 39.0599 42.1887C38.4598 42.1887 37.8843 41.9469 37.4599 41.5166C37.0356 41.0863 36.7972 40.5027 36.7972 39.8941V28.4212H41.3226V39.8941ZM25.4837 23.8321H11.9074C11.3073 23.8321 10.7318 24.0738 10.3075 24.5041C9.88314 24.9345 9.64474 25.5181 9.64474 26.1266C9.64474 26.7352 9.88314 27.3188 10.3075 27.7492C10.7318 28.1795 11.3073 28.4212 11.9074 28.4212H25.4837C26.0838 28.4212 26.6593 28.1795 27.0837 27.7492C27.508 27.3188 27.7464 26.7352 27.7464 26.1266C27.7464 25.5181 27.508 24.9345 27.0837 24.5041C26.6593 24.0738 26.0838 23.8321 25.4837 23.8321Z" fill="white"/>
</svg>
