<svg width="64" height="58" viewBox="0 0 64 58" fill="none" xmlns="http://www.w3.org/2000/svg">
<path d="M54.5058 40.1604C52.7538 40.1694 51.0478 40.7217 49.6228 41.741L42.7077 37.6484C43.0339 36.6356 43.2052 35.5793 43.2157 34.5154C43.2076 32.0187 42.3722 29.5951 40.84 27.6238C39.3079 25.6525 37.1656 24.2446 34.7482 23.6205V17.0722C36.6314 16.4064 38.2186 15.0962 39.2293 13.3733C40.24 11.6504 40.609 9.62572 40.2713 7.65702C39.9335 5.68832 38.9106 3.90242 37.3834 2.61495C35.8563 1.32748 33.9231 0.621338 31.9256 0.621338C29.9282 0.621338 27.995 1.32748 26.4678 2.61495C24.9407 3.90242 23.9178 5.68832 23.58 7.65702C23.2422 9.62572 23.6113 11.6504 24.622 13.3733C25.6327 15.0962 27.2199 16.4064 29.1031 17.0722V23.6205C26.6857 24.2446 24.5434 25.6525 23.0112 27.6238C21.4791 29.5951 20.6437 32.0187 20.6355 34.5154C20.646 35.5793 20.8173 36.6356 21.1436 37.6484L14.2284 41.741C12.8035 40.7217 11.0974 40.1694 9.34546 40.1604C7.67073 40.1604 6.03362 40.657 4.64113 41.5875C3.24865 42.5179 2.16334 43.8403 1.52245 45.3876C0.88156 46.9348 0.713874 48.6374 1.0406 50.2799C1.36732 51.9225 2.17378 53.4313 3.35799 54.6155C4.5422 55.7997 6.05097 56.6061 7.69352 56.9328C9.33607 57.2596 11.0386 57.0919 12.5859 56.451C14.1331 55.8101 15.4556 54.7248 16.386 53.3323C17.3164 51.9398 17.813 50.3027 17.813 48.628C17.8026 47.8635 17.6887 47.1039 17.4743 46.37L23.9661 42.5031C26.0815 44.6059 28.943 45.7862 31.9256 45.7862C34.9083 45.7862 37.7698 44.6059 39.8851 42.5031L46.3769 46.37C45.904 48.0793 45.9797 49.894 46.5934 51.558C47.2071 53.222 48.3278 54.6512 49.7974 55.6441C51.267 56.6371 53.0112 57.1435 54.784 57.0919C56.5568 57.0404 58.2687 56.4335 59.6781 55.3569C61.0874 54.2802 62.1232 52.7883 62.6392 51.0914C63.1552 49.3946 63.1253 47.5786 62.5539 45.8996C61.9824 44.2206 60.8982 42.7635 59.4542 41.7338C58.0102 40.704 56.2793 40.1537 54.5058 40.1604ZM9.34546 51.4505C8.78722 51.4505 8.24151 51.285 7.77735 50.9748C7.31319 50.6647 6.95142 50.2239 6.73779 49.7081C6.52416 49.1924 6.46827 48.6249 6.57717 48.0773C6.68608 47.5298 6.9549 47.0269 7.34964 46.6322C7.74437 46.2374 8.2473 45.9686 8.79481 45.8597C9.34233 45.7508 9.90984 45.8067 10.4256 46.0203C10.9413 46.2339 11.3822 46.5957 11.6923 47.0599C12.0024 47.524 12.168 48.0697 12.168 48.628C12.168 49.3766 11.8706 50.0945 11.3413 50.6238C10.812 51.1531 10.094 51.4505 9.34546 51.4505ZM31.9256 6.29017C32.4839 6.29017 33.0296 6.4557 33.4937 6.76585C33.9579 7.07599 34.3197 7.51681 34.5333 8.03256C34.7469 8.5483 34.8028 9.11582 34.6939 9.66333C34.585 10.2108 34.3162 10.7138 33.9215 11.1085C33.5267 11.5032 33.0238 11.7721 32.4763 11.881C31.9288 11.9899 31.3612 11.934 30.8455 11.7204C30.3298 11.5067 29.8889 11.145 29.5788 10.6808C29.2687 10.2166 29.1031 9.67093 29.1031 9.11269C29.1031 8.36411 29.4005 7.64619 29.9298 7.11686C30.4591 6.58754 31.1771 6.29017 31.9256 6.29017ZM31.9256 40.1604C30.8091 40.1604 29.7177 39.8293 28.7894 39.2091C27.8611 38.5888 27.1376 37.7071 26.7103 36.6756C26.283 35.6441 26.1712 34.5091 26.3891 33.4141C26.6069 32.3191 27.1445 31.3132 27.934 30.5237C28.7235 29.7343 29.7293 29.1966 30.8243 28.9788C31.9194 28.761 33.0544 28.8728 34.0859 29.3C35.1174 29.7273 35.999 30.4508 36.6193 31.3792C37.2396 32.3075 37.5707 33.3989 37.5707 34.5154C37.5707 36.0125 36.9759 37.4484 35.9173 38.507C34.8586 39.5657 33.4228 40.1604 31.9256 40.1604ZM54.5058 51.4505C53.9476 51.4505 53.4019 51.285 52.9377 50.9748C52.4735 50.6647 52.1118 50.2239 51.8981 49.7081C51.6845 49.1924 51.6286 48.6249 51.7375 48.0773C51.8464 47.5298 52.1152 47.0269 52.51 46.6322C52.9047 46.2374 53.4076 45.9686 53.9552 45.8597C54.5027 45.7508 55.0702 45.8067 55.5859 46.0203C56.1017 46.2339 56.5425 46.5957 56.8527 47.0599C57.1628 47.524 57.3283 48.0697 57.3283 48.628C57.3283 49.3766 57.031 50.0945 56.5016 50.6238C55.9723 51.1531 55.2544 51.4505 54.5058 51.4505Z" fill="black"/>
</svg>
