<svg width="52" height="41" viewBox="0 0 52 41" fill="none" xmlns="http://www.w3.org/2000/svg">
<path d="M26.993 21.1122C28.2376 20.0316 29.2358 18.6952 29.92 17.1935C30.6042 15.6918 30.9583 14.0601 30.9583 12.409C30.9583 9.30655 29.7295 6.33117 27.5424 4.1374C25.3552 1.94363 22.3888 0.711182 19.2957 0.711182C16.2026 0.711182 13.2362 1.94363 11.0491 4.1374C8.86192 6.33117 7.63319 9.30655 7.63319 12.409C7.63317 14.0601 7.98727 15.6918 8.67145 17.1935C9.35563 18.6952 10.3539 20.0316 11.5985 21.1122C8.33327 22.5952 5.56301 24.9901 3.6189 28.0105C1.67479 31.0309 0.639099 34.5491 0.635666 38.1442C0.635666 38.7647 0.881411 39.3598 1.31884 39.7986C1.75627 40.2373 2.34955 40.4838 2.96817 40.4838C3.58679 40.4838 4.18008 40.2373 4.61751 39.7986C5.05494 39.3598 5.30068 38.7647 5.30068 38.1442C5.30068 34.4213 6.77516 30.8508 9.39974 28.2183C12.0243 25.5858 15.584 24.1068 19.2957 24.1068C23.0074 24.1068 26.5671 25.5858 29.1917 28.2183C31.8163 30.8508 33.2908 34.4213 33.2908 38.1442C33.2908 38.7647 33.5365 39.3598 33.974 39.7986C34.4114 40.2373 35.0047 40.4838 35.6233 40.4838C36.2419 40.4838 36.8352 40.2373 37.2726 39.7986C37.7101 39.3598 37.9558 38.7647 37.9558 38.1442C37.9524 34.5491 36.9167 31.0309 34.9726 28.0105C33.0285 24.9901 30.2582 22.5952 26.993 21.1122ZM19.2957 19.4277C17.9118 19.4277 16.5589 19.0161 15.4081 18.2448C14.2574 17.4736 13.3605 16.3775 12.8309 15.095C12.3012 13.8125 12.1627 12.4012 12.4327 11.0397C12.7027 9.67824 13.3691 8.42763 14.3477 7.44604C15.3264 6.46446 16.5732 5.796 17.9306 5.52518C19.288 5.25436 20.6949 5.39335 21.9736 5.92458C23.2522 6.45581 24.3451 7.35541 25.114 8.50963C25.8829 9.66385 26.2933 11.0208 26.2933 12.409C26.2933 14.2705 25.556 16.0557 24.2437 17.372C22.9314 18.6882 21.1516 19.4277 19.2957 19.4277ZM42.0144 20.1764C43.5071 18.4903 44.4822 16.4075 44.8222 14.1785C45.1623 11.9496 44.8528 9.66955 43.9311 7.6129C43.0094 5.55625 41.5147 3.81063 39.627 2.58616C37.7392 1.3617 35.5389 0.710579 33.2908 0.711182C32.6722 0.711182 32.0789 0.957671 31.6414 1.39643C31.204 1.83518 30.9583 2.43026 30.9583 3.05075C30.9583 3.67124 31.204 4.26632 31.6414 4.70507C32.0789 5.14383 32.6722 5.39031 33.2908 5.39031C35.1466 5.39031 36.9265 6.12978 38.2388 7.44604C39.5511 8.76231 40.2883 10.5475 40.2883 12.409C40.285 13.6378 39.9601 14.8443 39.3461 15.9076C38.7321 16.971 37.8505 17.8541 36.7895 18.4685C36.4437 18.6686 36.1549 18.9543 35.9507 19.2984C35.7465 19.6425 35.6338 20.0334 35.6233 20.4337C35.6135 20.8309 35.7048 21.224 35.8884 21.576C36.072 21.9281 36.342 22.2274 36.6729 22.4458L37.5826 23.054L37.8858 23.2178C40.6974 24.5554 43.0694 26.671 44.7224 29.3155C46.3753 31.9599 47.2405 35.0231 47.2159 38.1442C47.2159 38.7647 47.4616 39.3598 47.899 39.7986C48.3365 40.2373 48.9297 40.4838 49.5484 40.4838C50.167 40.4838 50.7603 40.2373 51.1977 39.7986C51.6351 39.3598 51.8809 38.7647 51.8809 38.1442C51.8999 34.554 51.0034 31.0185 49.2766 27.8737C47.5497 24.7289 45.0498 22.0792 42.0144 20.1764Z" fill="white"/>
</svg>
