<svg width="76" height="57" viewBox="0 0 76 57" fill="none" xmlns="http://www.w3.org/2000/svg">
<path fill-rule="evenodd" clip-rule="evenodd" d="M74.859 14.9905C75.076 15.207 75.2483 15.4642 75.3658 15.7474C75.4833 16.0306 75.5438 16.3342 75.5438 16.6408C75.5438 16.9474 75.4833 17.251 75.3658 17.5342C75.2483 17.8174 75.076 18.0746 74.859 18.2911L60.8732 32.2769C60.6567 32.4939 60.3995 32.6662 60.1163 32.7837C59.8331 32.9012 59.5295 32.9617 59.2229 32.9617C58.9163 32.9617 58.6127 32.9012 58.3295 32.7837C58.0463 32.6662 57.7891 32.4939 57.5726 32.2769L50.5797 25.284C50.142 24.8463 49.8961 24.2527 49.8961 23.6337C49.8961 23.0147 50.142 22.421 50.5797 21.9833C51.0174 21.5457 51.611 21.2998 52.23 21.2998C52.849 21.2998 53.4426 21.5457 53.8803 21.9833L59.2229 27.3306L71.5583 14.9905C71.7748 14.7734 72.0321 14.6012 72.3153 14.4837C72.5985 14.3661 72.902 14.3057 73.2086 14.3057C73.5152 14.3057 73.8188 14.3661 74.102 14.4837C74.3852 14.6012 74.6424 14.7734 74.859 14.9905Z" fill="black"/>
<path d="M5.61088 56.267C5.61088 56.267 0.948959 56.267 0.948959 51.6051C0.948959 46.9431 5.61088 32.9574 28.9205 32.9574C52.23 32.9574 56.892 46.9431 56.892 51.6051C56.892 56.267 52.23 56.267 52.23 56.267H5.61088ZM28.9205 28.2955C32.6297 28.2955 36.187 26.822 38.8099 24.1991C41.4327 21.5763 42.9062 18.019 42.9062 14.3097C42.9062 10.6005 41.4327 7.04314 38.8099 4.42031C36.187 1.79747 32.6297 0.323975 28.9205 0.323975C25.2112 0.323975 21.6539 1.79747 19.031 4.42031C16.4082 7.04314 14.9347 10.6005 14.9347 14.3097C14.9347 18.019 16.4082 21.5763 19.031 24.1991C21.6539 26.822 25.2112 28.2955 28.9205 28.2955Z" fill="black"/>
</svg>
