<svg width="56" height="211" viewBox="0 0 56 211" fill="none" xmlns="http://www.w3.org/2000/svg">
<path d="M48.6632 57.6553C49.6687 58.478 50.1714 59.4835 50.1714 60.6718C50.1714 61.1289 50.0115 61.6316 49.6915 62.1801C49.3716 62.6828 48.9831 63.1399 48.5261 63.5512C47.9776 64.0997 47.3377 64.7853 46.6065 65.6079C45.8752 66.3849 45.1439 67.2533 44.4126 68.2131C43.6814 69.1729 43.0187 70.2241 42.4245 71.3667C41.7846 72.5093 41.3047 73.7205 40.9848 75.0002C42.5388 75.1373 43.9556 75.5258 45.2353 76.1657C46.5151 76.8055 47.612 77.6282 48.5261 78.6337C49.4401 79.6849 50.1486 80.8732 50.6513 82.1987C51.1541 83.5698 51.4054 85.0552 51.4054 86.6549C51.4054 88.1174 51.1312 89.4657 50.5828 90.6997C50.0343 91.9794 49.2573 93.0763 48.2518 93.9904C47.2006 94.9502 45.9895 95.7044 44.6183 96.2528C43.2015 96.8013 41.6247 97.0755 39.8879 97.0755C37.8312 97.0755 36.0487 96.7099 34.5405 95.9786C33.0322 95.293 31.7754 94.3332 30.7699 93.0992C29.7644 91.9109 29.0331 90.5169 28.576 88.9172C28.0733 87.3633 27.8219 85.7179 27.8219 83.9812C27.8219 81.6959 28.1875 79.2507 28.9188 76.6456C29.6501 74.0861 30.747 71.5038 32.2095 68.8987C33.6264 66.2935 35.4089 63.7341 37.557 61.2203C39.7051 58.7066 42.1731 56.4213 44.9611 54.3646L48.6632 57.6553Z" fill="white"/>
<path d="M26.2302 56.6553C27.2357 57.478 27.7385 58.4835 27.7385 59.6718C27.7385 60.1289 27.5785 60.6316 27.2586 61.1801C26.9386 61.6828 26.5501 62.1399 26.0931 62.5512C25.5446 63.0997 24.9048 63.7853 24.1735 64.6079C23.4422 65.3849 22.711 66.2533 21.9797 67.2131C21.2484 68.1729 20.5857 69.2241 19.9916 70.3667C19.3517 71.5093 18.8718 72.7205 18.5519 74.0002C20.1058 74.1373 21.5227 74.5258 22.8024 75.1657C24.0821 75.8055 25.179 76.6282 26.0931 77.6337C27.0072 78.6849 27.7156 79.8732 28.2184 81.1987C28.7211 82.5698 28.9725 84.0552 28.9725 85.6549C28.9725 87.1174 28.6983 88.4657 28.1498 89.6997C27.6014 90.9794 26.8244 92.0763 25.8189 92.9904C24.7677 93.9502 23.5565 94.7044 22.1854 95.2528C20.7685 95.8013 19.1917 96.0755 17.455 96.0755C15.3982 96.0755 13.6158 95.7099 12.1075 94.9786C10.5993 94.293 9.3424 93.3332 8.3369 92.0992C7.3314 90.9109 6.60013 89.5169 6.14308 87.9172C5.64033 86.3633 5.38896 84.7179 5.38896 82.9812C5.38896 80.6959 5.75459 78.2507 6.48587 75.6456C7.21714 73.0861 8.31405 70.5038 9.77659 67.8987C11.1934 65.2935 12.9759 62.7341 15.124 60.2203C17.2721 57.7066 19.7402 55.4213 22.5282 53.3646L26.2302 56.6553Z" fill="white"/>
</svg>
